<svg width="25" height="25" viewBox="0 0 25 25" fill="none" xmlns="http://www.w3.org/2000/svg">
<path fill-rule="evenodd" clip-rule="evenodd" d="M24.2799 20.86L17.8299 14.41C20.0355 10.4904 19.0089 5.54428 15.4257 2.82612C11.8425 0.107958 6.8027 0.452279 3.62246 3.63253C0.442208 6.81277 0.0978869 11.8525 2.81605 15.4358C5.53421 19.019 10.4803 20.0456 14.3999 17.84L20.8399 24.28C21.4509 24.8927 22.3423 25.133 23.1783 24.9102C24.0144 24.6875 24.6682 24.0357 24.8933 23.2002C25.1185 22.3648 24.8809 21.4727 24.2699 20.86H24.2799ZM1.99994 10C1.99994 5.58173 5.58166 2.00001 9.99994 2.00001C14.4182 2.00001 17.9999 5.58173 17.9999 10C17.9999 14.4183 14.4182 18 9.99994 18C7.87821 18 5.84338 17.1572 4.34308 15.6569C2.84279 14.1566 1.99994 12.1217 1.99994 10ZM21.5699 23.58C22.1299 24.1133 23.0099 24.1133 23.5699 23.58L23.5799 23.59C23.8462 23.3253 23.9959 22.9654 23.9959 22.59C23.9959 22.2146 23.8462 21.8547 23.5799 21.59L17.2799 15.29C16.7221 16.0573 16.0472 16.7322 15.2799 17.29L21.5699 23.58Z" fill="black"/>
</svg>
